<svg width="51" height="51" viewBox="0 0 51 51" fill="none" xmlns="http://www.w3.org/2000/svg">
<path d="M41.1449 12.7422C41.2133 12.7914 41.2907 12.834 41.3703 12.8604C41.5281 12.9133 41.6655 12.8546 41.7765 12.7434C41.8751 12.6445 41.8288 12.5275 41.7863 12.42C41.7578 12.3481 41.7282 12.2696 41.677 12.2144C41.4936 12.0167 41.301 11.8275 41.1078 11.6309C40.919 11.7939 40.7456 11.9436 40.5625 12.1017C40.7272 12.3539 40.9089 12.5735 41.1449 12.7422Z" fill="#81D8D0"/>
<path d="M22.1389 45.3594C21.9503 45.278 21.7471 45.2312 21.5499 45.1699C21.484 45.2133 21.4053 45.1636 21.3831 45.272C21.3334 45.5158 21.2759 45.7581 21.219 46.0004C21.2035 46.0666 21.2221 46.099 21.2911 46.1042C21.3949 46.112 21.4984 46.1307 21.6022 46.1298C21.833 46.1278 22.0642 46.1137 22.2752 46.0056C22.4448 45.9188 22.5014 45.7388 22.3925 45.583C22.3292 45.4925 22.2381 45.4022 22.1392 45.3594H22.1389Z" fill="#81D8D0"/>
<path d="M42.3139 11.9658C42.3989 11.9655 42.4541 11.9267 42.4941 11.8571C42.5783 11.7111 42.5605 11.5535 42.4708 11.4339C42.3271 11.2428 42.152 11.0746 41.9856 10.901C41.9697 10.8846 41.9099 10.8846 41.8916 10.901C41.7194 11.0539 41.552 11.212 41.3623 11.3879C41.5115 11.5265 41.6495 11.6496 41.782 11.7786C41.9315 11.9241 42.1132 11.9672 42.3139 11.9664V11.9658Z" fill="#81D8D0"/>
<path d="M28.1475 45.5167C28.0437 45.87 27.9402 46.2233 27.8301 46.5988C28.1532 46.5867 28.4387 46.5744 28.7316 46.4815C28.5447 46.1469 28.3665 45.8272 28.1883 45.5078C28.1748 45.5107 28.1613 45.5136 28.1477 45.5167H28.1475Z" fill="#81D8D0"/>
<path d="M43.9191 13.657C43.909 13.6446 43.899 13.6322 43.8889 13.6199C43.5278 13.6777 43.167 13.7354 42.806 13.7932C42.7994 13.8064 42.7927 13.8197 42.7861 13.8329C42.9396 14.0749 43.0932 14.3173 43.2619 14.5832C43.4962 14.2532 43.7078 13.9551 43.9194 13.657H43.9191Z" fill="#81D8D0"/>
<path d="M9.26272 37.4878C9.27681 37.424 9.2794 37.3544 9.27106 37.2897C9.2426 37.0695 9.13365 36.8829 9.00572 36.7076C8.86141 36.5098 8.86054 36.513 8.65701 36.64C8.4621 36.7619 8.26432 36.8795 8.05273 37.008C8.16945 37.1437 8.26029 37.28 8.38046 37.3811C8.52908 37.5065 8.69295 37.6223 8.86773 37.7057C9.04942 37.7922 9.21845 37.6862 9.26272 37.4878Z" fill="#81D8D0"/>
<path d="M7.70104 35.6251C7.77348 35.5549 7.83385 35.4612 7.86978 35.3666C8.07878 34.8201 7.67631 34.2596 7.08124 34.259C7.07836 34.2489 7.07549 34.2386 7.07261 34.2285C6.89208 34.2803 6.70435 34.3159 6.5333 34.3895C6.42636 34.4355 6.32 34.5226 6.2556 34.6192C6.01038 34.9875 6.05897 35.4152 6.36829 35.7314C6.57355 35.9416 6.82193 36.027 7.11171 35.9519C7.33508 35.8942 7.53602 35.7849 7.70132 35.6248L7.70104 35.6251Z" fill="#81D8D0"/>
<path d="M14.6068 43.7254C14.6634 43.3411 14.7867 42.9909 14.8083 42.5928C14.4774 42.8084 14.1735 43.0065 13.8418 43.2229C14.0954 43.4253 14.3268 43.5926 14.6068 43.7254Z" fill="#81D8D0"/>
<path d="M14.4666 7.71955C14.1536 7.49216 13.8578 7.27712 13.5617 7.06238C13.5505 7.07273 13.5395 7.08336 13.5283 7.09371C13.5824 7.45507 13.6367 7.81672 13.6945 8.20366C13.9828 8.05877 14.2324 7.92021 14.4664 7.71984L14.4666 7.71955Z" fill="#81D8D0"/>
<path d="M6.48291 17.1284C6.94661 17.043 7.24788 16.7063 7.25104 16.2403C7.25219 16.0423 7.19614 15.8623 7.05556 15.7212C6.83967 15.5044 6.57059 15.3854 6.26874 15.3658C5.89013 15.3417 5.57017 15.6197 5.4638 16.0247C5.31058 16.6075 6.05514 17.2074 6.48291 17.1284Z" fill="#81D8D0"/>
<path d="M21.0671 4.86194C21.2261 4.8099 21.3796 4.78087 21.5115 4.7113C21.6906 4.61701 21.8671 4.50776 22.0189 4.37553C22.1598 4.25277 22.1307 4.0547 21.9818 3.93885C21.933 3.9009 21.8743 3.86727 21.8151 3.85232C21.5268 3.77959 21.2459 3.82328 20.9737 3.92994C20.9489 3.93971 20.9202 3.98772 20.9242 4.0133C20.967 4.28842 21.0159 4.56267 21.0674 4.86222L21.0671 4.86194Z" fill="#81D8D0"/>
<path d="M25.4022 1.65723C12.2677 1.65723 1.62012 12.3048 1.62012 25.4393C1.62012 38.5739 12.2677 49.2214 25.4022 49.2214C38.5367 49.2214 49.1843 38.5739 49.1843 25.4393C49.1843 12.3048 38.5367 1.65723 25.4022 1.65723ZM46.62 17.843C46.67 17.9802 46.624 18.086 46.4711 18.1406C46.1874 18.2421 45.9002 18.3335 45.6144 18.4289C45.5865 18.4381 45.5581 18.4459 45.5063 18.4614C45.5575 18.4985 45.5891 18.5238 45.6231 18.5453C46.0459 18.8121 46.4812 19.055 46.9495 19.2338C47.0446 19.2701 47.1231 19.3187 47.1441 19.4285C47.1677 19.5518 47.0929 19.6616 46.9684 19.6585C46.8856 19.6564 46.7971 19.6372 46.7226 19.6015C46.4708 19.4808 46.2227 19.3526 45.9766 19.2203C45.9076 19.1833 45.8665 19.1838 45.8177 19.2476C45.6774 19.4308 45.5259 19.6056 45.3908 19.7924C45.2459 19.9928 45.1363 20.2133 45.0826 20.4571C45.063 20.5453 45.013 20.5956 44.9233 20.6014C44.8328 20.6071 44.7738 20.556 44.7431 20.4778C44.6885 20.3392 44.6931 20.1926 44.7549 20.0635C44.8494 19.8669 44.9552 19.6734 45.0777 19.4926C45.2045 19.3051 45.3566 19.135 45.5058 18.9467C45.3597 18.8391 45.216 18.7299 45.0671 18.6278C45.0446 18.6126 44.9958 18.6258 44.9636 18.6376C44.7882 18.7003 44.6149 18.7684 44.4395 18.8305C44.2981 18.8808 44.2055 18.8472 44.1589 18.7354C44.0971 18.587 44.1285 18.4887 44.2633 18.416C44.5922 18.2389 44.9593 18.1791 45.3109 18.0701C45.6049 17.979 45.8924 17.866 46.1825 17.7623C46.2244 17.7473 46.2641 17.7255 46.3064 17.7111C46.4682 17.6553 46.5674 17.6976 46.6203 17.8427L46.62 17.843ZM45.4158 15.2092C45.425 15.2624 45.4097 15.3291 45.3839 15.3776C45.0593 15.9851 44.7304 16.5905 44.4027 17.1962C44.3837 17.2313 44.3636 17.2661 44.3441 17.3011C44.3515 17.3089 44.3587 17.3164 44.3662 17.3241C44.5602 17.2224 44.7552 17.122 44.9483 17.0186C45.2111 16.8783 45.4721 16.7342 45.7355 16.5951C45.7906 16.5658 45.851 16.5393 45.912 16.529C46.0911 16.4985 46.2357 16.6569 46.1888 16.8326C46.1787 16.8705 46.1417 16.907 46.1074 16.9309C46.0623 16.9625 46.0077 16.98 45.9577 17.005C45.4612 17.2523 44.965 17.4998 44.4688 17.7476C44.3754 17.7942 44.2837 17.8439 44.19 17.8893C44.0428 17.9603 43.9611 17.9534 43.8732 17.8672C43.7645 17.7608 43.7274 17.6165 43.795 17.4915C44.0316 17.0522 44.2748 16.6164 44.5137 16.1783C44.6025 16.0153 44.6867 15.8497 44.7586 15.6683C44.7316 15.6815 44.7046 15.6944 44.6775 15.7077C44.2578 15.9167 43.839 16.1282 43.417 16.3326C43.3531 16.3637 43.2735 16.3723 43.2011 16.3735C43.1013 16.3749 43.0504 16.3007 43.0194 16.2165C42.988 16.1308 43.0222 16.0627 43.0941 16.0138C43.1401 15.9825 43.1875 15.9506 43.239 15.9305C43.866 15.6861 44.4467 15.3509 45.032 15.0237C45.2197 14.9188 45.3793 14.9959 45.4161 15.2092H45.4158ZM43.9574 25.4393C43.9574 35.687 35.6499 43.9945 25.4022 43.9945C15.1545 43.9945 6.84702 35.6873 6.84702 25.4393C6.84702 15.1913 15.1545 6.88413 25.4022 6.88413C35.6499 6.88413 43.9574 15.1916 43.9574 25.4393ZM44.3513 13.3311C44.4064 13.4067 44.4251 13.4846 44.3774 13.5706C44.2802 13.7465 44.194 13.9296 44.0839 14.0969C43.8832 14.4017 43.6636 14.6943 43.4606 14.9979C43.3241 15.2017 43.1993 15.4136 43.0754 15.6254C43.0001 15.7542 42.9121 15.8031 42.8072 15.7565C42.6951 15.7065 42.629 15.5605 42.6891 15.4463C42.7652 15.3023 42.8621 15.1692 42.953 15.0332C43.0657 14.8651 43.0562 14.8737 42.9432 14.7136C42.7848 14.4888 42.6471 14.2493 42.4939 14.0205C42.4622 13.9733 42.403 13.9446 42.3688 13.9173C42.1624 13.9601 41.9914 13.9975 41.8197 14.0308C41.6725 14.0593 41.6018 14.0184 41.5509 13.8828C41.5009 13.7491 41.5302 13.6697 41.6685 13.6384C41.9514 13.5743 42.2366 13.5182 42.5226 13.4699C43.0363 13.3831 43.5515 13.3049 44.0658 13.2221C44.1828 13.2034 44.2788 13.2325 44.351 13.3311H44.3513ZM42.1081 10.5C42.3171 10.7168 42.5364 10.9261 42.7241 11.1603C42.8348 11.2986 42.9167 11.472 42.9702 11.6424C43.1119 12.0946 42.6252 12.4701 42.2205 12.3517C42.1966 12.3448 42.1725 12.3373 42.1316 12.3252C42.1506 12.3709 42.1621 12.4005 42.1753 12.4293C42.3536 12.8177 42.1334 13.2138 41.7079 13.2592C41.4055 13.2914 41.1306 13.2172 40.8995 13.0114C40.6221 12.7645 40.3892 12.4799 40.1992 12.1611C40.1133 12.0165 40.1291 11.9222 40.2556 11.8069C40.7371 11.3676 41.2189 10.9289 41.7013 10.4905C41.8488 10.3566 41.9712 10.358 42.1081 10.5ZM39.2459 8.0579C39.7117 8.13724 40.0793 8.40028 40.2947 8.83207C40.3507 8.94419 40.3516 9.08937 40.3553 9.22017C40.3579 9.31273 40.2817 9.36161 40.1894 9.36966C40.0934 9.37799 40.0342 9.32855 40.0029 9.2423C39.9839 9.18969 39.9704 9.13536 39.9526 9.08247C39.7416 8.4664 39.0502 8.25798 38.5405 8.66246C38.2467 8.89561 38.0627 9.18509 38.14 9.58296C38.209 9.938 38.5373 10.2318 38.8975 10.2557C39.1189 10.2703 39.2819 10.1545 39.4107 9.98917C39.4279 9.96703 39.411 9.89344 39.3857 9.86757C39.3052 9.78563 39.2126 9.7152 39.1255 9.6396C39.0749 9.59561 39.0209 9.5545 38.9774 9.50419C38.9208 9.43836 38.8895 9.36074 38.9533 9.2814C39.0203 9.19832 39.1057 9.19602 39.1942 9.2446C39.2299 9.26415 39.2638 9.28859 39.2942 9.31561C39.4587 9.46165 39.624 9.60654 39.7844 9.7566C39.9089 9.87303 39.9221 10.0156 39.8315 10.1617C39.5653 10.5909 38.9636 10.7679 38.516 10.5391C38.1213 10.3373 37.827 10.0452 37.7289 9.59417C37.7148 9.52921 37.7143 9.46136 37.7074 9.39495C37.699 8.50205 38.5986 7.9478 39.2462 8.0579H39.2459ZM36.7639 6.35C37.2187 6.38795 37.6024 6.58285 37.8712 6.96117C37.9351 7.05115 37.9667 7.17017 37.9905 7.28085C38.0184 7.40964 37.9664 7.48668 37.8617 7.5183C37.7565 7.54993 37.6789 7.51399 37.6289 7.3852C37.4964 7.04426 37.2583 6.8298 36.8961 6.77115C36.7851 6.75304 36.6635 6.75534 36.5537 6.78006C35.8828 6.93013 35.5708 7.80061 36.0138 8.28989C36.203 8.49889 36.4451 8.60612 36.7348 8.56558C36.9329 8.53799 37.0597 8.40718 37.1551 8.2462C37.1707 8.22004 37.1433 8.14299 37.1129 8.11999C37.0123 8.04381 36.9001 7.98315 36.7949 7.9133C36.7394 7.8765 36.6716 7.84258 36.6408 7.78911C36.6106 7.73679 36.5937 7.64508 36.6204 7.60052C36.648 7.55453 36.7601 7.50451 36.7929 7.52492C37.0634 7.69194 37.3311 7.86558 37.5838 8.0579C37.6694 8.12316 37.643 8.25108 37.599 8.35227C37.4087 8.7924 36.851 9.05889 36.3916 8.92205C36.0731 8.82719 35.804 8.65355 35.6002 8.38591C35.4446 8.18151 35.3788 7.9501 35.384 7.69597C35.3659 6.88298 36.1935 6.30228 36.7636 6.34971L36.7639 6.35ZM33.2495 6.72832C33.3817 6.31751 33.593 5.94494 33.8095 5.57525C33.8828 5.44991 33.959 5.32601 34.0374 5.20383C34.1599 5.01323 34.3402 4.94107 34.5494 5.02674C34.8904 5.16617 35.2239 5.32342 35.5599 5.47492C35.5933 5.48987 35.622 5.51574 35.6513 5.53845C35.7244 5.59566 35.7936 5.65517 35.735 5.76211C35.6801 5.86215 35.5639 5.91533 35.459 5.87365C35.3555 5.83254 35.2589 5.77447 35.1577 5.72732C34.9588 5.63504 34.7596 5.54334 34.5589 5.4548C34.456 5.40937 34.3755 5.42835 34.3197 5.5396C34.2579 5.66264 34.1881 5.78194 34.1136 5.89751C34.0547 5.98922 34.0826 6.03837 34.1743 6.07316C34.3554 6.14129 34.5365 6.20971 34.7168 6.27985C34.8102 6.31636 34.9085 6.34712 34.9922 6.40002C35.0361 6.42791 35.0876 6.50869 35.0755 6.54606C35.0574 6.60183 34.9927 6.65559 34.9352 6.68146C34.891 6.7013 34.8228 6.68807 34.7722 6.67025C34.5195 6.58171 34.2691 6.48713 34.0185 6.39341C33.9805 6.37932 33.9452 6.3592 33.8908 6.33333C33.817 6.49201 33.7436 6.63403 33.6844 6.78208C33.6341 6.9077 33.6706 7.02183 33.8057 7.09428C33.9549 7.17448 34.1162 7.23744 34.2792 7.2843C34.4209 7.32512 34.5727 7.33087 34.7193 7.35646C34.8674 7.38233 34.9272 7.44385 34.9183 7.55108C34.9074 7.68159 34.8286 7.76237 34.6874 7.75662C34.2347 7.73794 33.8129 7.60915 33.4441 7.34352C33.2365 7.19403 33.169 6.97986 33.2498 6.72918L33.2495 6.72832ZM29.7425 5.99468C29.7641 5.87422 29.794 5.75348 29.8363 5.63907C30.0435 5.08079 30.1335 4.49376 30.2629 3.91651C30.3008 3.74718 30.3503 3.69314 30.4733 3.68308C30.6133 3.67186 30.7197 3.73453 30.774 3.87856C31.0146 4.5159 31.2515 5.15496 31.4895 5.79316C31.5036 5.83053 31.5171 5.86819 31.5306 5.90556C31.5424 5.90613 31.5542 5.90642 31.566 5.907C31.6244 5.65775 31.683 5.40822 31.7408 5.15898C31.8037 4.88703 31.8607 4.61335 31.9302 4.34284C31.9854 4.12866 32.1341 4.05421 32.3034 4.14045C32.3994 4.18932 32.4411 4.26148 32.4083 4.36928C32.3517 4.55442 32.2887 4.73812 32.241 4.92555C32.1312 5.35849 32.0291 5.79344 31.9236 6.22753C31.9087 6.28905 31.8909 6.35 31.8768 6.41152C31.8489 6.53312 31.794 6.6277 31.6545 6.64064C31.4999 6.65501 31.3651 6.58717 31.3119 6.4463C31.1362 5.97944 30.9681 5.50942 30.7953 5.0414C30.7323 4.87093 30.6645 4.70247 30.5989 4.53315C30.5889 4.53315 30.5788 4.53315 30.569 4.53315C30.559 4.58058 30.5506 4.62859 30.5383 4.67545C30.4213 5.11816 30.3077 5.56145 30.1841 6.00215C30.1381 6.1663 30.0496 6.22667 29.9257 6.21747C29.7882 6.20712 29.7187 6.13037 29.7428 5.99468H29.7425ZM26.992 5.57899C27.0078 5.51143 27.0391 5.44473 27.0759 5.38494C27.4738 4.73812 27.8734 4.09216 28.275 3.44763C28.3052 3.39905 28.3506 3.35219 28.4 3.32459C28.5317 3.25071 28.6835 3.31051 28.7499 3.45022C28.9342 3.83716 29.0077 4.25745 29.119 4.66653C29.2225 5.04687 29.3369 5.42404 29.4464 5.80264C29.4548 5.8311 29.4617 5.85985 29.4668 5.87825C29.4597 5.98174 29.414 6.0424 29.3237 6.06712C29.2254 6.09414 29.1046 6.05792 29.0618 5.96708C29.0129 5.86388 28.9819 5.75176 28.9488 5.64166C28.9209 5.54909 28.9086 5.45106 28.8735 5.36194C28.8588 5.32457 28.8065 5.28432 28.7663 5.278C28.4725 5.23229 28.1767 5.20009 27.8831 5.1518C27.7727 5.13368 27.6966 5.14921 27.6419 5.25184C27.5666 5.39299 27.4884 5.53299 27.4059 5.67012C27.3182 5.81615 27.1363 5.83513 27.0219 5.70749C26.9954 5.67788 26.9828 5.6178 26.992 5.57812V5.57899ZM24.6758 3.92743C24.8011 3.4439 25.1182 3.16476 25.6207 3.10783C25.7242 3.09605 25.828 3.08599 25.9315 3.07535C26.2776 3.05724 26.5369 3.205 26.7338 3.47954C26.8252 3.60689 26.8215 3.68566 26.7171 3.77076C26.6226 3.84809 26.4814 3.8409 26.4113 3.73195C26.2419 3.46862 26.0022 3.43441 25.7262 3.49535C25.4269 3.56176 25.1797 3.68595 25.0978 4.02029C25.0429 4.24394 25.0026 4.46616 25.059 4.69327C25.1343 4.99512 25.3203 5.20584 25.621 5.28978C25.9312 5.37603 26.2276 5.34412 26.4762 5.11097C26.4926 5.09574 26.5073 5.07849 26.5242 5.0644C26.6159 4.98765 26.7292 4.98477 26.8094 5.05635C26.8853 5.1242 26.8994 5.23315 26.8344 5.33118C26.7341 5.48211 26.5947 5.58934 26.4222 5.64079C26.012 5.76268 25.6115 5.75578 25.2156 5.56317C24.7847 5.35332 24.614 4.9865 24.5898 4.54349C24.5789 4.33996 24.6237 4.1278 24.6755 3.92801L24.6758 3.92743ZM22.9914 3.26566C23.1225 3.22628 23.2579 3.19609 23.3939 3.17942C23.556 3.15958 23.7205 3.15584 23.8838 3.14981C23.947 3.14751 24.0177 3.15067 24.0264 3.23835C24.0347 3.32114 24.0197 3.39675 23.9298 3.43096C23.8953 3.44418 23.8582 3.45971 23.8225 3.45913C23.7084 3.45769 23.6753 3.5103 23.6894 3.61897C23.7486 4.07634 23.8027 4.53429 23.8602 4.99196C23.8771 5.12736 23.8987 5.26219 23.9185 5.39931C23.9875 5.39069 24.0427 5.3789 24.0976 5.37833C24.1942 5.37746 24.2621 5.41915 24.279 5.52235C24.2954 5.62297 24.2351 5.6773 24.1523 5.68679C23.8613 5.72014 23.5693 5.7486 23.2769 5.76441C23.2252 5.76728 23.151 5.71266 23.1196 5.66408C23.057 5.56634 23.1041 5.48297 23.2194 5.46055C23.2594 5.45278 23.3008 5.45278 23.3416 5.45077C23.4718 5.44445 23.4758 5.43669 23.4612 5.30358C23.4008 4.75651 23.3396 4.20945 23.2849 3.66152C23.2757 3.56809 23.2458 3.53388 23.1547 3.55544C23.126 3.56234 23.0958 3.56377 23.0662 3.56722C22.9828 3.57757 22.9204 3.55716 22.8974 3.46402C22.8739 3.36915 22.9009 3.29268 22.9917 3.26566H22.9914ZM20.6103 3.64398C20.994 3.51663 21.3818 3.42061 21.7927 3.46172C22.181 3.50082 22.4386 3.6871 22.5231 4.00074C22.5815 4.21635 22.5401 4.41068 22.3828 4.56822C22.2658 4.68551 22.133 4.78756 22.0005 4.90227C22.1115 5.01409 22.2233 5.138 22.3469 5.24868C22.4855 5.37287 22.6353 5.48441 22.7784 5.60342C22.8741 5.68305 22.8652 5.77102 22.7557 5.83197C22.6542 5.8886 22.5415 5.89205 22.4435 5.84145C22.3196 5.77763 22.1931 5.70605 22.0934 5.6109C21.9404 5.46486 21.8079 5.29726 21.6708 5.13512C21.6271 5.08366 21.5914 5.07504 21.5285 5.10407C21.4307 5.14863 21.3275 5.18256 21.2243 5.21303C21.1556 5.23315 21.1366 5.26391 21.1573 5.33377C21.2111 5.51574 21.2608 5.69915 21.308 5.88285C21.3436 6.0217 21.3022 6.10162 21.1786 6.14991C21.0582 6.19706 20.9466 6.17119 20.9023 6.04154C20.8172 5.79316 20.737 5.53874 20.6979 5.2803C20.6307 4.835 20.5864 4.38711 20.4441 3.95589C20.3846 3.77507 20.4294 3.70435 20.61 3.64455L20.6103 3.64398ZM18.4387 4.20197C18.7963 4.07519 19.1605 3.9671 19.5222 3.85211C19.5463 3.84435 19.5736 3.84435 19.5995 3.84378C19.6929 3.84205 19.7938 3.82825 19.822 3.95532C19.8507 4.08468 19.7912 4.19421 19.6607 4.23331C19.5003 4.28103 19.3356 4.31438 19.1755 4.36296C19.0191 4.41011 18.8656 4.4676 18.7118 4.52251C18.6293 4.55212 18.5976 4.61249 18.616 4.69902C18.6494 4.85569 18.683 5.01208 18.7141 5.16904C18.7282 5.2412 18.7641 5.26104 18.8322 5.23516C19.0234 5.16243 19.2151 5.09143 19.4072 5.02042C19.498 4.98678 19.5874 4.94309 19.6814 4.92785C19.7372 4.91894 19.8206 4.93878 19.8559 4.97787C19.9128 5.04112 19.8947 5.12793 19.8312 5.18888C19.7918 5.22683 19.7447 5.26247 19.6944 5.2826C19.4425 5.38379 19.1901 5.48326 18.9348 5.57496C18.8615 5.60141 18.8279 5.62297 18.8575 5.70663C18.8972 5.81874 18.921 5.93632 18.9593 6.04901C19.0076 6.19217 19.0895 6.26289 19.2364 6.233C19.4158 6.1962 19.5926 6.1318 19.7599 6.05534C19.8904 5.99583 20.0028 5.89722 20.1264 5.82104C20.2595 5.73882 20.3461 5.74745 20.4116 5.84088C20.4849 5.94523 20.4714 6.05534 20.3619 6.14647C20.006 6.44257 19.5914 6.60384 19.1824 6.66795C18.9035 6.66076 18.7261 6.56676 18.6249 6.35086C18.4499 5.97657 18.3628 5.57611 18.2791 5.17508C18.2426 5.0003 18.2095 4.82436 18.1854 4.64756C18.1566 4.43713 18.2412 4.27212 18.4392 4.20168L18.4387 4.20197ZM15.0102 5.63188C15.1485 5.52983 15.3181 5.55283 15.4515 5.64597C15.7772 5.87394 16.1141 6.08581 16.447 6.30372C16.4522 6.30716 16.4614 6.304 16.5011 6.31061C16.6005 5.86589 16.7069 5.42231 16.7972 4.97586C16.8429 4.74904 16.9978 4.63347 17.1904 4.72489C17.2442 4.75048 17.2934 4.81056 17.3192 4.86662C17.5199 5.29898 17.7085 5.7371 17.9134 6.16745C18.0043 6.35834 18.1213 6.53715 18.2328 6.71739C18.305 6.83353 18.3015 6.91805 18.2029 7.00171C18.0997 7.08939 17.9589 7.10031 17.8812 7.00803C17.8079 6.92093 17.745 6.82117 17.6961 6.71826C17.5156 6.33792 17.3431 5.95414 17.1674 5.5718C17.1508 5.53558 17.1329 5.49964 17.1025 5.43611C17.0435 5.64798 16.9898 5.83197 16.9412 6.01739C16.9027 6.16515 16.8705 6.31435 16.8357 6.46298C16.7676 6.75275 16.6028 6.82577 16.3418 6.67945C16.1273 6.55928 15.9146 6.43624 15.7007 6.31464C15.6731 6.29883 15.6438 6.2856 15.6154 6.27123C15.6079 6.27899 15.6004 6.28647 15.5926 6.29423C15.7505 6.59349 15.9083 6.89276 16.0667 7.19173C16.1434 7.33662 16.226 7.47835 16.2978 7.62553C16.3867 7.80751 16.3142 7.94147 16.1156 7.97769C16.0239 7.99437 15.9543 7.96476 15.9117 7.87966C15.5958 7.24635 15.2793 6.61362 14.9648 5.97973C14.882 5.81299 14.8981 5.71525 15.0105 5.63217L15.0102 5.63188ZM13.5196 6.62339C13.9598 6.82779 14.3272 7.14257 14.7245 7.41194C14.9956 7.59564 15.2727 7.77042 15.5492 7.94578C15.6559 8.01334 15.6979 8.09815 15.6576 8.19474C15.6159 8.29478 15.4805 8.3701 15.3813 8.32985C15.2827 8.28961 15.191 8.22952 15.1008 8.17174C15.0068 8.11166 14.9205 8.03893 14.8251 7.98172C14.796 7.96418 14.7371 7.96533 14.7081 7.98373C14.4433 8.14932 14.1834 8.32295 13.9187 8.48883C13.8508 8.53137 13.8088 8.57593 13.8183 8.66045C13.852 8.83207 13.8905 9.00283 13.9178 9.17532C13.9431 9.33458 13.8868 9.40904 13.7292 9.449C13.6217 9.47631 13.5593 9.4513 13.5329 9.34465C13.4863 9.15721 13.4486 8.96719 13.4147 8.77688C13.3365 8.33675 13.2592 7.89662 13.1896 7.45506C13.1597 7.26418 13.1436 7.07013 13.1336 6.87694C13.1212 6.64466 13.3095 6.52565 13.5194 6.62339H13.5196ZM9.48635 9.65311C9.60162 9.55249 9.67723 9.5545 9.78187 9.66892C9.96557 9.86929 10.149 10.0702 10.3275 10.2752C10.3772 10.3321 10.4158 10.341 10.4753 10.2956C10.811 10.0392 11.1054 9.7405 11.3938 9.41191C11.2647 9.27996 11.1411 9.15261 11.0169 9.02641C10.928 8.93614 10.8349 8.8499 10.7495 8.75647C10.6489 8.64608 10.6547 8.54402 10.7581 8.44226C10.8668 8.33531 10.9554 8.33071 11.0672 8.44254C11.2121 8.58743 11.3469 8.74181 11.4889 8.88957C11.8244 9.23857 12.1616 9.58613 12.4982 9.93397C12.5267 9.96329 12.5572 9.99118 12.5839 10.0219C12.6831 10.1364 12.6848 10.2306 12.5917 10.3149C12.46 10.4336 12.3502 10.4373 12.243 10.3221C12.0731 10.1395 11.9055 9.95467 11.7361 9.77126C11.7111 9.74424 11.683 9.72038 11.6528 9.69163C11.3222 10.0056 11.0011 10.3103 10.6595 10.6343C10.857 10.822 11.056 11.0152 11.2601 11.2029C11.338 11.2745 11.3866 11.3455 11.3483 11.4562C11.2911 11.6212 11.1198 11.6764 10.9815 11.5703C10.9608 11.5545 10.9413 11.5369 10.9232 11.5183C10.4399 11.0117 9.9558 10.5058 9.47485 9.99722C9.35353 9.869 9.36158 9.76206 9.48663 9.65282L9.48635 9.65311ZM7.65081 11.7474C7.75545 11.6166 7.8713 11.495 7.97968 11.367C8.18379 11.1256 8.38071 10.8772 8.59172 10.6417C8.68687 10.5354 8.80474 10.4474 8.92059 10.362C8.99764 10.3054 9.08417 10.3114 9.14827 10.3945C9.21123 10.4762 9.23049 10.569 9.1615 10.6512C9.08762 10.7389 9.00051 10.8162 8.91484 10.8933C8.64145 11.1391 8.6357 11.1442 8.91743 11.3783C9.32996 11.7209 9.74939 12.055 10.168 12.3905C10.2982 12.4948 10.3218 12.5624 10.2484 12.6687C10.1498 12.8119 10.0389 12.8453 9.90721 12.7553C9.79395 12.6777 9.68959 12.5865 9.5838 12.498C9.20663 12.1829 8.83061 11.8667 8.45402 11.551C8.44022 11.5392 8.42412 11.53 8.39767 11.5114C8.31488 11.6094 8.23553 11.7063 8.15274 11.8006C8.08662 11.8762 8.0205 11.9526 7.94691 12.0205C7.83537 12.1234 7.74251 12.122 7.64218 12.0265C7.56341 11.9518 7.56083 11.8598 7.65109 11.7471L7.65081 11.7474ZM6.29507 13.6893C6.47733 13.3239 6.68287 12.9743 7.01865 12.7245C7.21183 12.5808 7.41996 12.4796 7.67237 12.5397C7.98859 12.615 8.172 12.8369 8.17258 13.162C8.17286 13.3092 8.1536 13.4564 8.14297 13.6068C8.32839 13.6068 8.51726 13.6143 8.70527 13.6045C8.86856 13.5961 9.03041 13.5654 9.19341 13.5504C9.3222 13.5386 9.38228 13.6071 9.33283 13.7264C9.30064 13.8037 9.24199 13.8917 9.17127 13.927C9.05139 13.9871 8.91427 14.0348 8.78174 14.0417C8.55607 14.0538 8.32839 14.0325 8.10157 14.0202C8.02424 14.0159 7.98112 14.034 7.95294 14.1145C7.91126 14.2329 7.8506 14.345 7.78966 14.4787C7.986 14.5876 8.17833 14.692 8.36835 14.801C8.48851 14.8697 8.51611 14.9602 8.46149 15.0824C8.41636 15.183 8.34018 15.2356 8.2295 15.2095C8.15073 15.1908 8.06822 15.1686 7.9998 15.1272C7.79943 15.0059 7.59791 14.8843 7.41048 14.7446C7.09396 14.5083 6.78061 14.2706 6.42299 14.0958C6.19416 13.9839 6.17979 13.9213 6.29535 13.6899L6.29507 13.6893ZM5.11641 15.7637C5.305 15.2583 5.68533 14.9456 6.24361 14.9487C6.66074 14.951 7.03762 15.085 7.34464 15.4058C7.57204 15.643 7.63787 15.9123 7.63643 16.2567C7.65541 16.5991 7.50736 16.9162 7.25495 17.1887C6.92263 17.5478 6.39425 17.6593 5.94291 17.469C5.72816 17.3785 5.53584 17.2517 5.37543 17.0809C5.01436 16.6963 4.93875 16.2398 5.11641 15.764V15.7637ZM3.76096 19.2706C3.79402 19.2269 3.85036 19.1902 3.90326 19.1732C4.55238 18.9665 5.20294 18.7641 5.85321 18.5609C5.89864 18.5468 5.94434 18.5347 5.99293 18.4993C5.94636 18.483 5.90007 18.4643 5.85264 18.4505C5.39498 18.3174 4.93703 18.1857 4.47965 18.0517C4.4302 18.0374 4.38018 18.0175 4.33706 17.9902C4.17694 17.8882 4.16774 17.6884 4.32556 17.5817C4.3684 17.5527 4.4486 17.5524 4.5015 17.5699C4.85136 17.6852 5.19662 17.8157 5.54763 17.9281C5.86299 18.029 6.18467 18.1107 6.50205 18.2061C6.66275 18.2544 6.71334 18.3165 6.71794 18.4393C6.72369 18.5971 6.6501 18.7253 6.50665 18.7707C6.00241 18.9294 5.49588 19.0809 4.99078 19.237C4.84273 19.2827 4.69641 19.3345 4.54922 19.3836C4.55008 19.3911 4.55066 19.3989 4.55152 19.4063C4.58544 19.4158 4.61994 19.4242 4.65357 19.4351C5.08278 19.5716 5.51227 19.7073 5.94061 19.8465C5.99983 19.8657 6.0579 19.8962 6.10907 19.9318C6.2094 20.0023 6.23211 20.1063 6.18295 20.2182C6.13494 20.3277 6.04467 20.3355 5.94837 20.3093C5.8374 20.2791 5.72557 20.2463 5.62036 20.2003C5.06754 19.9594 4.47936 19.8347 3.90125 19.6783C3.66925 19.6156 3.65718 19.4092 3.76182 19.2712L3.76096 19.2706ZM3.44991 25.8337C3.44761 25.2778 3.90038 24.8233 4.45751 24.8221C5.01752 24.821 5.46541 25.2689 5.4657 25.8294C5.4657 26.3868 5.01292 26.839 4.45608 26.8379C3.90786 26.8367 3.45249 26.382 3.45019 25.8337H3.44991ZM4.9813 33.7635C4.88183 33.6244 4.87666 33.4964 4.9859 33.3524C5.34151 32.8835 5.702 32.4184 6.05962 31.9513C6.11137 31.8837 6.15851 31.813 6.2255 31.719C6.16829 31.7377 6.13925 31.7471 6.10993 31.7563C5.67757 31.8952 5.24578 32.0352 4.81284 32.1715C4.74988 32.1913 4.68146 32.2031 4.61563 32.2031C4.49604 32.2031 4.41439 32.1272 4.39197 32.0079C4.37012 31.8917 4.4417 31.8348 4.53427 31.7986C4.61361 31.7673 4.69497 31.7377 4.77834 31.7195C5.32627 31.6002 5.85034 31.4091 6.36981 31.2021C6.4388 31.1745 6.51067 31.1541 6.58024 31.1276C6.68948 31.0862 6.78464 31.0969 6.85938 31.1952C6.93096 31.2895 6.94131 31.4249 6.87404 31.5177C6.6317 31.8526 6.38993 32.1881 6.14098 32.5182C5.9682 32.747 5.78422 32.9672 5.60541 33.1914C5.58299 33.2196 5.56229 33.2495 5.54073 33.2785C5.54763 33.2877 5.55481 33.2969 5.56171 33.3061C5.85235 33.2041 6.14328 33.102 6.43392 33C6.63055 32.9307 6.82604 32.858 7.02411 32.7933C7.08994 32.7717 7.16238 32.7605 7.23167 32.7616C7.36333 32.7639 7.43261 32.8413 7.44842 32.9847C7.46107 33.1017 7.41766 33.1604 7.28887 33.2015C6.63285 33.4105 5.9774 33.6206 5.32109 33.8285C5.1351 33.8874 5.05662 33.8693 4.98072 33.7635H4.9813ZM6.75877 36.4008C6.08808 36.2142 5.58529 35.5746 5.70516 34.8375C5.76266 34.4833 5.96993 34.216 6.27379 34.0329C6.51614 33.8868 6.78406 33.8089 7.07068 33.8104C7.70399 33.8101 8.23007 34.2821 8.32724 34.9364C8.39106 35.3659 8.22749 35.7106 7.92247 35.9949C7.61545 36.2809 7.24776 36.4221 6.82517 36.41C6.80304 36.4094 6.78033 36.4066 6.75905 36.4008H6.75877ZM8.36519 37.8813C8.30165 38.0429 8.23122 38.2062 8.17286 38.3738C8.11537 38.5391 8.07081 38.7087 8.01878 38.8757C7.98169 38.9953 7.88884 39.0295 7.80317 38.9378C7.74136 38.872 7.6945 38.7771 7.67725 38.688C7.64506 38.5233 7.6876 38.362 7.76149 38.2116C7.85032 38.0311 7.93943 37.8509 8.03258 37.6723C8.06305 37.6137 8.05989 37.5786 8.00814 37.5297C7.91126 37.438 7.82674 37.3337 7.72843 37.225C7.67697 37.2612 7.62177 37.2972 7.56974 37.3368C7.43922 37.436 7.31216 37.5398 7.17963 37.6364C7.08448 37.7057 6.99651 37.6919 6.91113 37.6048C6.82949 37.5217 6.81281 37.4214 6.87951 37.3322C6.93039 37.2644 6.98817 37.1971 7.05602 37.1477C7.22764 37.0232 7.39984 36.8964 7.5844 36.7932C7.95582 36.5857 8.3235 36.3758 8.64979 36.0987C8.80848 35.9638 8.88322 35.9759 9.01718 36.1326C9.26528 36.423 9.49612 36.7265 9.60709 37.0985C9.64705 37.2322 9.67062 37.3762 9.66976 37.5154C9.66659 37.9828 9.21583 38.2798 8.78462 38.1012C8.6449 38.0435 8.51582 37.961 8.3649 37.8807L8.36519 37.8813ZM8.83061 40.1955C8.70872 40.082 8.69061 39.9635 8.78893 39.8528C8.85045 39.7836 8.92318 39.7238 8.99361 39.6631C9.40585 39.3084 9.81896 38.9545 10.2315 38.6003C10.2427 38.5908 10.2519 38.579 10.2723 38.5578C10.1815 38.4505 10.0895 38.345 10.0012 38.2361C9.94056 38.161 9.87904 38.0849 9.82931 38.0026C9.76491 37.8957 9.78906 37.8031 9.88709 37.7278C9.96902 37.6651 10.0501 37.6672 10.1355 37.7577C10.2502 37.8796 10.3525 38.013 10.4615 38.1403C10.6742 38.3896 10.8935 38.6334 11.0988 38.8886C11.1882 38.9999 11.2543 39.1313 11.321 39.2589C11.3662 39.3452 11.3452 39.4254 11.2546 39.4788C11.162 39.5335 11.0571 39.5271 10.991 39.4458C10.9186 39.3564 10.8608 39.2555 10.7932 39.1617C10.7265 39.0695 10.6555 38.9801 10.5776 38.878C10.3873 39.0355 10.2085 39.1755 10.0389 39.3253C9.7261 39.6016 9.41793 39.883 9.10946 40.1642C8.99045 40.2726 8.92462 40.2826 8.83061 40.1955ZM11.6945 42.5738C11.6692 42.6011 11.6453 42.6299 11.6197 42.6569C11.5033 42.7805 11.4081 42.7957 11.3133 42.7069C11.1784 42.5804 11.171 42.4683 11.292 42.343C11.4602 42.1688 11.6301 41.9963 11.7982 41.8223C11.8261 41.7936 11.85 41.7608 11.8756 41.7301C11.5464 41.421 11.2239 41.118 10.8861 40.8009C10.7688 40.9269 10.6432 41.0565 10.5236 41.1913C10.452 41.2721 10.3925 41.363 10.3235 41.4463C10.2384 41.5492 10.1182 41.5651 10.0185 41.4917C9.89974 41.4046 9.87128 41.2865 9.96126 41.1715C10.0691 41.0341 10.1895 40.9062 10.3091 40.7782C10.6854 40.3752 11.0626 39.973 11.4423 39.5731C11.5608 39.4484 11.6499 39.4443 11.7623 39.5406C11.8989 39.6579 11.9043 39.7473 11.7778 39.8764C11.5927 40.0653 11.4081 40.255 11.2178 40.439C11.1577 40.4971 11.154 40.5434 11.2109 40.5965C11.5016 40.8685 11.7931 41.1393 12.0843 41.4107C12.136 41.459 12.1679 41.4259 12.2033 41.3865C12.3876 41.1816 12.571 40.9757 12.7593 40.7742C12.853 40.6739 12.9562 40.6704 13.0568 40.7512C13.1827 40.8524 13.1962 40.9536 13.0867 41.0755C12.945 41.2336 12.7941 41.3834 12.6497 41.5392C12.3306 41.8833 12.013 42.2291 11.6947 42.5741L11.6945 42.5738ZM14.9608 43.9882C14.9159 44.2481 14.8857 44.5108 14.8564 44.773C14.8397 44.9208 14.7797 45.0021 14.6647 45.0024C14.5347 45.0024 14.4189 44.8955 14.4298 44.7583C14.443 44.5884 14.4775 44.42 14.5063 44.2515C14.535 44.0833 14.5307 44.0937 14.3901 44.0089C14.1481 43.8629 13.9118 43.7068 13.6792 43.5463C13.6024 43.4934 13.5415 43.4857 13.4682 43.538C13.3227 43.6421 13.1761 43.7444 13.0306 43.8479C12.9444 43.9091 12.8639 43.8959 12.7849 43.8332C12.6472 43.7243 12.6431 43.6311 12.7736 43.5159C12.7987 43.4937 12.8237 43.4707 12.8516 43.4523C13.5007 43.0231 14.1501 42.5942 14.8001 42.1659C14.8967 42.1021 14.9938 42.1018 15.0936 42.1647C15.1735 42.2153 15.2158 42.282 15.2086 42.3777C15.2048 42.4298 15.2025 42.4818 15.1997 42.5341C15.2089 42.5359 15.2183 42.5376 15.2275 42.5393C15.1381 43.022 15.0441 43.5041 14.9608 43.9879V43.9882ZM17.6501 46.1759C17.6116 46.2998 17.5466 46.351 17.4331 46.336C17.2965 46.3179 17.1884 46.2233 17.2045 46.1078C17.2206 45.9919 17.2554 45.8746 17.3049 45.7685C17.4842 45.3839 17.6734 45.0036 17.8588 44.6215C17.8749 44.5882 17.8904 44.5548 17.918 44.4962C17.8657 44.5149 17.8329 44.5238 17.8025 44.5378C17.5288 44.6646 17.2557 44.7926 16.9823 44.9202C16.9622 44.9297 16.9429 44.9418 16.9225 44.9507C16.6931 45.0521 16.5338 44.9725 16.4864 44.7247C16.4372 44.4689 16.3967 44.2113 16.3519 43.9546C16.3464 43.9235 16.3386 43.8927 16.3246 43.8284C16.2886 43.9048 16.2653 43.9502 16.2458 43.9971C16.0822 44.3889 15.9198 44.7811 15.7565 45.1729C15.7421 45.2074 15.728 45.2419 15.7108 45.2747C15.6688 45.3543 15.6059 45.4356 15.5159 45.4135C15.4296 45.3922 15.3486 45.3278 15.2813 45.2649C15.2566 45.2419 15.2618 45.1623 15.2802 45.1206C15.5619 44.4798 15.8473 43.8404 16.1337 43.2014C16.2185 43.0122 16.3016 42.9585 16.4395 42.9941C16.6138 43.0389 16.7029 43.1778 16.7132 43.3526C16.7365 43.7487 16.7759 44.144 16.8087 44.5396C16.8268 44.5485 16.8452 44.5574 16.8633 44.5663C17.2241 44.3927 17.5851 44.2202 17.9451 44.0445C18.0083 44.0138 18.0647 43.9686 18.1268 43.935C18.2323 43.8781 18.3832 43.8902 18.453 43.9574C18.5413 44.0422 18.5591 44.1722 18.4999 44.2946C18.2604 44.7908 18.0181 45.2859 17.7835 45.7846C17.7254 45.9085 17.6904 46.0434 17.6493 46.1747L17.6501 46.1759ZM20.4438 45.0067C20.2777 44.9524 20.1158 44.884 19.9496 44.8291C19.7979 44.779 19.6429 44.7382 19.4888 44.6957C19.3962 44.6701 19.3324 44.6997 19.2945 44.794C19.2266 44.9625 19.1525 45.128 19.0677 45.325C19.268 45.377 19.4399 45.4216 19.6119 45.4661C19.7524 45.5026 19.8939 45.536 20.0333 45.5759C20.1037 45.5963 20.1681 45.6343 20.1601 45.7228C20.1514 45.8163 20.0945 45.8798 20.0031 45.8844C19.9077 45.889 19.8091 45.8807 19.7159 45.8597C19.4658 45.803 19.2177 45.7366 18.9435 45.6679C18.8952 45.8321 18.8328 46.0023 18.7969 46.1782C18.7716 46.3012 18.8601 46.3912 18.9673 46.424C19.1579 46.4823 19.3543 46.5263 19.5509 46.5594C19.6671 46.5789 19.7892 46.5605 19.908 46.5695C20.06 46.5809 20.1161 46.6353 20.1155 46.7503C20.1149 46.8816 20.0517 46.9561 19.9126 46.969C19.475 47.0104 19.0576 46.9274 18.6669 46.7316C18.4108 46.6034 18.3168 46.4036 18.3662 46.1213C18.4404 45.6958 18.6117 45.3017 18.7828 44.9087C18.8423 44.7721 18.9035 44.6359 18.9702 44.5028C19.0697 44.3047 19.2401 44.2182 19.4523 44.2774C19.7964 44.3737 20.1368 44.4838 20.478 44.5902C20.5234 44.6043 20.5666 44.6296 20.6077 44.6549C20.6867 44.7029 20.7626 44.7546 20.7149 44.8679C20.668 44.9785 20.5545 45.0427 20.4438 45.0061V45.0067ZM22.4889 46.3418C22.3532 46.399 22.2078 46.4335 22.0419 46.4864C22.1109 46.6413 22.175 46.7994 22.2509 46.9512C22.3325 47.1142 22.426 47.2712 22.5131 47.4316C22.5686 47.5339 22.5392 47.6015 22.4257 47.6285C22.3101 47.6561 22.2012 47.6187 22.129 47.5374C22.0272 47.4224 21.9295 47.2959 21.8645 47.1579C21.7791 46.9771 21.7251 46.7813 21.6627 46.5904C21.6409 46.5237 21.6101 46.4953 21.5359 46.4976C21.4284 46.5007 21.32 46.4938 21.2134 46.4815C21.1447 46.4737 21.1194 46.4979 21.1122 46.5623C21.0895 46.7618 21.0671 46.9616 21.0377 47.1602C21.0199 47.281 20.961 47.3261 20.8414 47.3316C20.6933 47.3382 20.5962 47.2674 20.606 47.1148C20.6229 46.8526 20.6456 46.5867 20.7074 46.3326C20.8144 45.895 20.9391 45.463 20.9659 45.0093C20.9754 44.85 21.0504 44.79 21.2074 44.7974C21.5621 44.8141 21.912 44.8613 22.2431 44.9998C22.4303 45.078 22.6045 45.1789 22.7341 45.3396C23.0133 45.686 22.8966 46.1699 22.4886 46.3418H22.4889ZM24.3179 45.3413C24.3089 45.4348 24.2701 45.5064 24.1638 45.5153C24.0907 45.5213 23.9801 45.5 23.9528 45.5386C23.9062 45.6041 23.9024 45.7062 23.8967 45.7938C23.8702 46.1949 23.8496 46.5959 23.8266 46.9972C23.8197 47.1162 23.8151 47.2352 23.805 47.3537C23.799 47.4247 23.8208 47.4583 23.897 47.4529C23.9372 47.45 23.9804 47.4526 24.0186 47.4641C24.0982 47.4885 24.1402 47.5457 24.1393 47.6314C24.1385 47.7202 24.081 47.7622 24.0048 47.7674C23.6943 47.7895 23.3873 47.7619 23.0875 47.6782C22.9865 47.6501 22.9437 47.5612 22.965 47.469C22.9906 47.3577 23.078 47.3652 23.1605 47.3724C23.3709 47.3908 23.3629 47.3913 23.3784 47.1777C23.416 46.6623 23.4603 46.1471 23.5052 45.6323C23.5164 45.5023 23.5175 45.5015 23.3824 45.4885C23.3013 45.4808 23.2013 45.4983 23.1737 45.3836C23.1464 45.2701 23.1932 45.1916 23.3094 45.1689C23.3853 45.1539 23.4643 45.1548 23.5776 45.1456C23.7578 45.1683 23.972 45.1927 24.1853 45.2235C24.2497 45.2327 24.3268 45.2459 24.3179 45.3411V45.3413ZM26.8341 47.4296C26.722 47.5911 26.5682 47.6998 26.3776 47.7513C26.281 47.7774 26.1821 47.7955 26.0841 47.8171H25.6592C25.5155 47.7671 25.3689 47.7245 25.2286 47.6659C24.8028 47.4882 24.6384 47.1257 24.5872 46.7025C24.5539 46.4257 24.6142 46.1538 24.7114 45.8916C24.8758 45.4471 25.2174 45.2482 25.6673 45.1999C25.767 45.1893 25.8676 45.1818 25.968 45.1786C26.2997 45.1683 26.5458 45.3218 26.7312 45.5863C26.8111 45.7001 26.8031 45.7795 26.7068 45.8605C26.6214 45.9324 26.4941 45.9252 26.4124 45.8436C26.4046 45.8358 26.3969 45.8272 26.3911 45.8177C26.2529 45.5923 26.0424 45.5331 25.8009 45.5843C25.65 45.6165 25.5005 45.6702 25.3605 45.7358C25.2884 45.7697 25.2194 45.841 25.182 45.9126C25.0403 46.1845 24.9885 46.4775 25.0552 46.7793C25.1242 47.0918 25.3168 47.3051 25.6285 47.3905C25.9467 47.4779 26.2419 47.4336 26.4889 47.1936C26.4995 47.1832 26.5093 47.1717 26.5202 47.1619C26.6136 47.0783 26.7295 47.0725 26.8137 47.1467C26.8971 47.22 26.9086 47.3212 26.8338 47.429L26.8341 47.4296ZM29.6143 47.4158C29.5269 47.496 29.3815 47.5037 29.299 47.4175C29.2328 47.3485 29.1808 47.2649 29.1296 47.1832C29.0684 47.0855 29.0149 46.9828 28.958 46.8822C28.9264 46.8267 28.8867 46.8158 28.8195 46.827C28.5409 46.8733 28.2612 46.9144 27.9806 46.9463C27.7966 46.9673 27.7768 46.9711 27.7285 47.1504C27.6888 47.2979 27.6609 47.4486 27.6192 47.5955C27.5753 47.7495 27.3746 47.8108 27.2493 47.7081C27.2171 47.6817 27.2064 47.6294 27.1866 47.5906C27.2208 47.4448 27.2481 47.31 27.2846 47.1775C27.4347 46.6315 27.5859 46.0859 27.7406 45.5414C27.7771 45.4126 27.8271 45.2876 27.8754 45.1625C27.9562 44.9535 28.1971 44.9047 28.3221 45.0861C28.5478 45.4135 28.7559 45.7533 28.9675 46.0905C29.1868 46.4404 29.3999 46.7945 29.6195 47.1444C29.6873 47.2528 29.6917 47.3451 29.6146 47.4158H29.6143ZM32.109 46.7773C31.9808 46.8624 31.8279 46.8655 31.7146 46.7715C31.4596 46.5597 31.2095 46.3423 30.9571 46.1273C30.7105 45.9172 30.4641 45.7067 30.2169 45.4972C30.1982 45.4813 30.1752 45.4704 30.1347 45.4451C30.1499 45.5 30.16 45.534 30.1689 45.5682C30.2867 46.0296 30.4063 46.4907 30.5207 46.9529C30.5469 47.0587 30.5334 47.1637 30.4322 47.2321C30.2985 47.3223 30.174 47.2864 30.1234 47.1297C30.0746 46.978 30.0519 46.8181 30.0099 46.664C29.8708 46.1546 29.7282 45.6461 29.5867 45.1369C29.5778 45.1048 29.5675 45.0728 29.5588 45.0404C29.5226 44.9052 29.5456 44.8305 29.6422 44.7661C29.744 44.698 29.8739 44.6942 29.9645 44.7704C30.4972 45.2189 31.0278 45.6699 31.5588 46.1204C31.5919 46.1486 31.6235 46.1785 31.6796 46.1946C31.6284 46.0094 31.5792 45.8237 31.5255 45.6392C31.4369 45.3353 31.3444 45.0326 31.2567 44.7287C31.2383 44.6649 31.2242 44.5976 31.2228 44.5315C31.2184 44.3395 31.3743 44.2216 31.5522 44.2929C31.6042 44.3136 31.6514 44.3915 31.6666 44.4519C31.7609 44.8233 31.84 45.1988 31.9354 45.5702C32.0133 45.8729 32.1105 46.1707 32.1933 46.472C32.2376 46.6336 32.2111 46.71 32.1096 46.7773H32.109ZM35.3561 45.2289C35.3256 45.2752 35.2891 45.3186 35.2492 45.3572C34.9824 45.6156 34.6682 45.7976 34.3186 45.918C34.2387 45.9456 34.1524 45.9557 34.1021 45.9666C33.8805 45.9591 33.7117 45.8996 33.6252 45.7294C33.472 45.4282 33.3288 45.1206 33.2009 44.8078C33.1095 44.5844 33.0462 44.349 32.9764 44.1173C32.9002 43.8649 32.9749 43.684 33.2092 43.5696C33.497 43.4291 33.7888 43.2965 34.0811 43.1649C34.1516 43.1332 34.2289 43.1128 34.3051 43.0985C34.3879 43.0829 34.4718 43.0824 34.5092 43.1844C34.5469 43.2879 34.5135 43.4092 34.4215 43.4592C34.3433 43.5018 34.2579 43.5311 34.1763 43.567C33.9515 43.6656 33.7238 43.7585 33.5036 43.8663C33.3682 43.9324 33.365 43.962 33.4125 44.1081C33.4576 44.2461 33.5073 44.3826 33.5525 44.5206C33.5752 44.5899 33.614 44.608 33.679 44.5749C33.8083 44.5091 33.9386 44.4447 34.0679 44.3789C34.2073 44.3079 34.3427 44.2274 34.4871 44.169C34.5362 44.1492 34.6423 44.1647 34.661 44.1981C34.6912 44.2518 34.6871 44.3401 34.6656 44.4024C34.6486 44.4513 34.588 44.493 34.5374 44.5209C34.3031 44.6505 34.0673 44.7782 33.8276 44.8978C33.7534 44.9346 33.7206 44.9633 33.7618 45.0461C33.8098 45.1427 33.846 45.245 33.8905 45.3434C33.9693 45.5173 34.0754 45.567 34.2608 45.5107C34.5164 45.4331 34.7245 45.277 34.92 45.101C34.9752 45.0513 35.0327 45.003 35.0939 44.9613C35.1664 44.9119 35.2443 44.9093 35.3069 44.9774C35.3725 45.0487 35.4202 45.1312 35.3567 45.2284L35.3561 45.2289ZM37.2296 44.3159C36.9634 44.5358 36.6739 44.7023 36.324 44.7063C35.8388 44.7121 35.4763 44.4804 35.2342 44.0655C35.102 43.8393 35.0453 43.5892 35.0474 43.3264C35.0445 42.6747 35.6536 42.0342 36.3002 42.0207C36.4117 42.0184 36.5279 42.05 36.6348 42.0868C36.7242 42.1176 36.7604 42.1975 36.7354 42.2967C36.7104 42.3967 36.6434 42.4355 36.546 42.4332C36.4865 42.4318 36.4267 42.4292 36.3672 42.4292C35.7295 42.4283 35.3049 43.0108 35.5122 43.6122C35.5576 43.7438 35.6246 43.8746 35.7077 43.9862C36.0639 44.4634 36.8127 44.403 37.1014 43.8821C37.2221 43.6642 37.1787 43.459 37.0657 43.256C37.0284 43.189 36.972 43.2019 36.9208 43.2298C36.8067 43.2925 36.6969 43.3632 36.5822 43.4247C36.521 43.4575 36.4543 43.4937 36.3876 43.4992C36.3384 43.5032 36.2622 43.4727 36.2398 43.4337C36.2136 43.3879 36.2148 43.3077 36.2378 43.2583C36.2622 43.2063 36.3212 43.1637 36.3743 43.1332C36.5586 43.028 36.7469 42.9291 36.9341 42.8294C37.1189 42.7308 37.2799 42.7635 37.3845 42.9478C37.6036 43.333 37.7206 43.9097 37.229 44.3156L37.2296 44.3159ZM39.6148 42.5327C39.3351 42.8713 38.9424 43.078 38.5799 43.078C37.9931 43.0778 37.4921 42.6552 37.3357 42.0293C37.1597 41.3253 37.6157 40.5718 38.3272 40.41C38.4485 40.3824 38.5853 40.4013 38.711 40.4226C38.8113 40.4396 38.8512 40.5244 38.8369 40.6282C38.8236 40.7256 38.7621 40.7685 38.6704 40.7785C38.6259 40.7834 38.5816 40.79 38.5373 40.794C37.8784 40.8512 37.5093 41.507 37.808 42.0957C37.9497 42.3755 38.1487 42.5925 38.4741 42.6595C38.8622 42.7394 39.3026 42.485 39.4273 42.1084C39.5009 41.8864 39.4314 41.6967 39.2954 41.526C39.2753 41.5007 39.1948 41.4917 39.1649 41.511C39.0556 41.5812 38.9576 41.6683 38.8527 41.7453C38.7961 41.7867 38.738 41.837 38.673 41.8528C38.6213 41.8655 38.533 41.8505 38.5068 41.8146C38.4729 41.7677 38.4649 41.6821 38.4821 41.624C38.4982 41.5699 38.5566 41.5231 38.606 41.4857C38.7782 41.3552 38.953 41.2281 39.1301 41.1042C39.279 40.9999 39.4225 41.018 39.5521 41.1491C39.9192 41.5205 39.9468 42.1308 39.6145 42.533L39.6148 42.5327ZM42.2354 39.908C42.0368 40.1808 41.8117 40.4275 41.5509 40.6417C41.4026 40.7636 41.3149 40.763 41.1663 40.6405C40.6776 40.2375 40.1883 39.8347 39.7002 39.4308C39.5015 39.2664 39.4894 39.1649 39.6499 38.9599C39.831 38.7285 40.0095 38.4939 40.2053 38.2752C40.3421 38.1222 40.512 38.0026 40.7187 37.9518C41.0964 37.8586 41.4917 38.2116 41.4443 38.5992C41.4403 38.6311 41.4362 38.663 41.4302 38.7101C41.4638 38.6932 41.4842 38.686 41.5012 38.6736C41.8959 38.385 42.3743 38.6328 42.4341 39.1261C42.4689 39.4113 42.4065 39.6723 42.2351 39.9077L42.2354 39.908ZM44.154 37.1356C44.0563 37.1454 43.9542 37.1299 43.8559 37.1149C43.7421 37.0974 43.6305 37.0617 43.5164 37.0479C43.4756 37.043 43.4115 37.0669 43.3896 37.0994C43.214 37.3575 43.0493 37.6235 42.8728 37.881C42.8227 37.9541 42.8147 38.0127 42.863 38.0823C42.9625 38.2263 43.0611 38.3709 43.1622 38.5138C43.2278 38.606 43.2249 38.6906 43.1507 38.7771C43.0352 38.9119 42.9478 38.9139 42.8337 38.7791C42.8072 38.7478 42.7788 38.7176 42.7566 38.6834C42.3409 38.0386 41.9244 37.3943 41.5121 36.7472C41.4316 36.621 41.4417 36.4911 41.5507 36.4034C41.6153 36.3514 41.7162 36.3445 41.8131 36.3134C42.1975 36.3841 42.5807 36.4577 42.9653 36.5244C43.3646 36.5937 43.7654 36.657 44.1655 36.7211C44.2687 36.7374 44.3349 36.7978 44.3403 36.8918C44.3469 37.0039 44.2664 37.1244 44.154 37.1356ZM45.2508 34.891C44.8466 34.9554 44.4407 35.0106 44.0356 35.0701C43.7599 35.1106 43.4845 35.1529 43.2062 35.2178C43.2335 35.2311 43.2611 35.244 43.2882 35.2575C43.7145 35.4705 44.1425 35.6798 44.5646 35.9009C44.6364 35.9386 44.7089 36.0188 44.733 36.0947C44.7856 36.2605 44.6399 36.387 44.4726 36.3353C44.4266 36.3212 44.3803 36.3025 44.3398 36.2775C43.7648 35.9204 43.147 35.6502 42.5255 35.3889C42.299 35.2937 42.3329 35.0563 42.4783 34.9413C42.5166 34.9111 42.5723 34.8967 42.6224 34.8893C43.3215 34.7832 44.0212 34.6794 44.7207 34.5751C44.7379 34.5725 44.7552 34.5693 44.7724 34.5661C44.7738 34.5564 44.7753 34.5469 44.7767 34.5371C44.5513 34.4316 44.3262 34.3252 44.1006 34.2206C43.8539 34.1062 43.6058 33.9949 43.36 33.8785C43.3037 33.8518 43.2482 33.817 43.2031 33.7744C43.1036 33.681 43.0984 33.5735 43.1781 33.4642C43.2611 33.3501 43.3284 33.3383 43.467 33.4073C44.083 33.7152 44.6997 34.0217 45.316 34.3293C45.3962 34.3692 45.4779 34.408 45.4986 34.5104C45.5313 34.6739 45.4161 34.8651 45.2513 34.8913L45.2508 34.891ZM46.5082 31.8113C46.4421 31.9159 46.369 32.0355 46.2676 32.0941C46.0764 32.2048 45.8671 32.2896 45.657 32.3606C45.4428 32.4331 45.2189 32.4759 44.984 32.5357C45.0369 32.7122 45.0855 32.8864 45.1432 33.0572C45.1519 33.083 45.2002 33.1012 45.2338 33.1118C45.3971 33.1641 45.5618 33.2115 45.7254 33.2624C45.8976 33.3162 45.9565 33.3929 45.9249 33.518C45.8826 33.6859 45.7886 33.752 45.6075 33.7014C45.3574 33.6313 45.1116 33.5427 44.8673 33.4539C44.57 33.3458 44.2777 33.2239 43.9795 33.1184C43.847 33.0715 43.703 33.0583 43.5687 33.0152C43.4322 32.9715 43.3879 32.8749 43.4239 32.7441C43.4615 32.6073 43.5682 32.5386 43.7044 32.5811C43.9709 32.6642 44.2345 32.7565 44.4987 32.8462C44.5545 32.8651 44.6083 32.8896 44.6888 32.9215C44.6652 32.8439 44.656 32.7918 44.6344 32.7456C44.4335 32.3138 44.236 31.8802 44.0255 31.4531C43.9333 31.2656 43.9341 31.138 44.0661 31.0638C44.1788 31.0006 44.3096 31.0624 44.3998 31.2406C44.5326 31.5031 44.6566 31.7704 44.7813 32.0369C44.8063 32.0904 44.8308 32.1226 44.8975 32.1097C45.2496 32.0418 45.598 31.9607 45.9203 31.7977C46.0293 31.7425 46.1313 31.6712 46.229 31.5979C46.3075 31.539 46.3831 31.518 46.4625 31.5804C46.5404 31.6416 46.5571 31.7351 46.5085 31.8118L46.5082 31.8113ZM46.3696 26.8382C45.8134 26.8393 45.3603 26.3863 45.3606 25.8291C45.3606 25.2691 45.8099 24.821 46.3693 24.8224C46.9268 24.8238 47.3787 25.2783 47.3761 25.8346C47.3735 26.3834 46.9187 26.837 46.3696 26.8382Z" fill="#81D8D0"/>
<path d="M41.8938 39.0154C41.7854 38.9312 41.6742 38.9884 41.5713 39.0442C41.5227 39.0706 41.4669 39.0956 41.433 39.1365C41.245 39.363 41.0624 39.5944 40.8767 39.8261C41.0739 39.9972 41.247 40.1475 41.4422 40.3171C41.5934 40.1383 41.7486 39.9739 41.8803 39.7925C41.9591 39.6838 42.0157 39.5527 42.0559 39.4236C42.1088 39.2537 42.0237 39.1163 41.8935 39.0151L41.8938 39.0154Z" fill="#81D8D0"/>
<path d="M41.0501 38.6521C41.0369 38.477 40.94 38.3856 40.7649 38.4049C40.6824 38.4141 40.593 38.4394 40.5246 38.4845C40.2889 38.6409 40.144 38.8755 39.9971 39.119C40.1995 39.2837 40.3921 39.4407 40.6034 39.6126C40.714 39.4542 40.8089 39.3076 40.915 39.1693C41.034 39.014 41.0642 38.8401 41.0498 38.6524L41.0501 38.6521Z" fill="#81D8D0"/>
<path d="M6.75574 13.7674C6.98572 13.9313 7.21944 14.09 7.46753 14.2607C7.54486 14.0986 7.63398 13.9569 7.68026 13.8019C7.73517 13.6188 7.77254 13.4253 7.78088 13.235C7.78951 13.041 7.61098 12.9191 7.41981 12.9605C7.36231 12.9728 7.30338 12.9927 7.25365 13.0231C7.00182 13.1766 6.84543 13.4101 6.73102 13.6743C6.72067 13.6981 6.73475 13.7525 6.75574 13.7674Z" fill="#81D8D0"/>
<path d="M28.7676 4.91507C28.6765 4.53991 28.5905 4.18632 28.5049 3.83301C28.4905 3.83301 28.4761 3.8333 28.4617 3.83358C28.2683 4.14262 28.0745 4.45166 27.8652 4.78571C28.1843 4.86045 28.462 4.92484 28.7676 4.91536V4.91507Z" fill="#81D8D0"/>
<path d="M41.9378 36.7441C42.1511 37.0779 42.3474 37.3852 42.5435 37.6922C42.559 37.6914 42.5748 37.6905 42.5904 37.6897C42.7496 37.4551 42.9089 37.2202 43.0679 36.9856C43.0589 36.9735 43.05 36.9615 43.0411 36.9491C42.6818 36.8928 42.3365 36.7594 41.9375 36.7441H41.9378Z" fill="#81D8D0"/>
<path d="M24.5543 33.6367C24.5543 32.9844 24.5526 32.3321 24.5563 31.6798C24.5569 31.5812 24.5276 31.5516 24.4278 31.5412C22.4069 31.3314 20.6096 30.5888 19.0739 29.2509C17.4025 27.7948 16.3727 25.9642 15.9504 23.7911C15.8153 23.0963 15.7587 22.3929 15.786 21.6857C15.8728 19.4373 16.6315 17.4434 18.099 15.7349C19.5896 13.9994 21.472 12.9297 23.7215 12.5114C24.3744 12.3901 25.035 12.3409 25.6985 12.3668C27.9313 12.4536 29.916 13.2014 31.6225 14.6474C33.385 16.1405 34.4749 18.033 34.8972 20.3052C35.0179 20.9546 35.0673 21.6121 35.0409 22.2721C34.9535 24.4526 34.2095 26.3859 32.8196 28.0654C31.5943 29.5459 30.0644 30.5857 28.2311 31.1715C27.6433 31.3595 27.041 31.4814 26.4267 31.5421C26.3398 31.5507 26.314 31.5809 26.3142 31.6651C26.3163 32.9798 26.3165 34.2944 26.3137 35.609C26.3137 35.7125 26.3571 35.7289 26.4462 35.7286C27.4363 35.7263 28.4263 35.7272 29.4167 35.7272C29.5154 35.7272 29.5648 35.7764 29.565 35.8749C29.565 36.37 29.5624 36.865 29.5673 37.3601C29.5682 37.4621 29.5374 37.4909 29.4365 37.4906C28.4465 37.4871 27.4564 37.4886 26.466 37.4886C26.366 37.4886 26.3159 37.5383 26.3157 37.6378C26.3157 38.6247 26.3157 39.6113 26.3157 40.5982C26.3157 40.7373 26.3154 40.7376 26.1783 40.7376C25.6798 40.7376 25.1813 40.735 24.6831 40.7399C24.5816 40.7408 24.5523 40.7117 24.5526 40.6097C24.556 39.6196 24.5546 38.6296 24.5546 37.6392C24.5546 37.4888 24.5546 37.4883 24.4063 37.4883C23.4263 37.4883 22.446 37.4883 21.466 37.4883C21.3669 37.4883 21.3172 37.4381 21.317 37.3376C21.317 36.8492 21.317 36.3608 21.317 35.8724C21.317 35.7272 21.3173 35.7266 21.4599 35.7266C22.4399 35.7266 23.4202 35.7266 24.4002 35.7266C24.503 35.7266 24.5544 35.6752 24.5546 35.5725C24.5546 34.9268 24.5546 34.2815 24.5546 33.6358L24.5543 33.6367ZM25.3753 29.9265C29.7257 29.9417 33.3203 26.3784 33.3258 21.9878C33.331 17.6308 29.7919 14.0319 25.3848 14.0264C20.9962 14.021 17.422 17.5929 17.4237 21.978C17.4255 26.3879 21.0261 29.9385 25.3753 29.9265Z" fill="#FF94AB"/>
</svg>
