<svg width="18" height="19" viewBox="0 0 18 19" fill="none" xmlns="http://www.w3.org/2000/svg">
<path d="M7.53231 0.5C3.36808 0.5 0 3.78716 0 7.85135C0 11.9155 3.36808 15.2027 7.53231 15.2027C9.01904 15.2027 10.395 14.777 11.5615 14.0541L16.1169 18.5L18 16.6622L13.5138 12.2973C14.4796 11.0608 15.0646 9.52872 15.0646 7.85135C15.0646 3.78716 11.6965 0.5 7.53231 0.5ZM7.53231 2.22973C10.7221 2.22973 13.2923 4.73818 13.2923 7.85135C13.2923 10.9645 10.7221 13.473 7.53231 13.473C4.3425 13.473 1.77231 10.9645 1.77231 7.85135C1.77231 4.73818 4.3425 2.22973 7.53231 2.22973Z" fill="#333333"/>
</svg>
